<svg xmlns="http://www.w3.org/2000/svg" viewBox="0 0 512 512" width="2500" height="2500">
  <path fill="#0db7ed" d="M503 187c-13-10-32-10-45 0-19 15-40 26-64 29-3-12-11-23-24-27-18-6-33 2-43 16-6-5-12-8-18-11 3-12 11-23 24-28 18-6 33 2 43 16 12-10 26-19 41-24 10-4 21-6 31-6s20 3 29 8c2 2 5 3 7 5z"/>
  <path fill="#0db7ed" d="M10 299c0 64 54 117 120 117h252c63 0 115-53 115-117H10z"/>
  <path fill="#0db7ed" d="M102 173h48v48h-48zm61 0h48v48h-48zm61 0h48v48h-48zm-122 61h48v48h-48zm61 0h48v48h-48zm61 0h48v48h-48zm-122 61h48v48h-48zm61 0h48v48h-48zm61 0h48v48h-48zm61-122h48v48h-48zm0 61h48v48h-48z"/>
</svg>